<svg width="24" height="15" viewBox="0 0 24 15" fill="none" xmlns="http://www.w3.org/2000/svg">
<path d="M2 11L1.02986 11.2425C1.14115 11.6877 1.54113 12 2 12V11ZM1 7L0.105573 6.55279C-0.00118208 6.7663 -0.0280385 7.01095 0.0298575 7.24254L1 7ZM4 1V0C3.62123 0 3.27496 0.214002 3.10557 0.552786L4 1ZM13 1L13.7071 0.292893C13.5196 0.105357 13.2652 0 13 0V1ZM17 5L16.2929 5.70711C16.4403 5.85448 16.63 5.95213 16.8356 5.98639L17 5ZM23 6H24C24 5.51116 23.6466 5.09397 23.1644 5.01361L23 6ZM23 11V12C23.5523 12 24 11.5523 24 11H23ZM2.97014 10.7575L1.97014 6.75746L0.0298575 7.24254L1.02986 11.2425L2.97014 10.7575ZM1.89443 7.44721L4.89443 1.44721L3.10557 0.552786L0.105573 6.55279L1.89443 7.44721ZM4 2H13V0H4V2ZM12.2929 1.70711L16.2929 5.70711L17.7071 4.29289L13.7071 0.292893L12.2929 1.70711ZM16.8356 5.98639L22.8356 6.98639L23.1644 5.01361L17.1644 4.01361L16.8356 5.98639ZM22 6V11H24V6H22ZM8.5 11C8.5 11.8284 7.82843 12.5 7 12.5V14.5C8.933 14.5 10.5 12.933 10.5 11H8.5ZM7 12.5C6.17157 12.5 5.5 11.8284 5.5 11H3.5C3.5 12.933 5.067 14.5 7 14.5V12.5ZM5.5 11C5.5 10.1716 6.17157 9.5 7 9.5V7.5C5.067 7.5 3.5 9.067 3.5 11H5.5ZM7 9.5C7.82843 9.5 8.5 10.1716 8.5 11H10.5C10.5 9.067 8.933 7.5 7 7.5V9.5ZM19.5 11C19.5 11.8284 18.8284 12.5 18 12.5V14.5C19.933 14.5 21.5 12.933 21.5 11H19.5ZM18 12.5C17.1716 12.5 16.5 11.8284 16.5 11H14.5C14.5 12.933 16.067 14.5 18 14.5V12.5ZM16.5 11C16.5 10.1716 17.1716 9.5 18 9.5V7.5C16.067 7.5 14.5 9.067 14.5 11H16.5ZM18 9.5C18.8284 9.5 19.5 10.1716 19.5 11H21.5C21.5 9.067 19.933 7.5 18 7.5V9.5ZM2 12H4.5V10H2V12ZM9.5 12H15.5V10H9.5V12ZM20.5 12H23V10H20.5V12Z" fill="#65BCBF"/>
</svg>
