<svg width="16" height="18" viewBox="0 0 16 18" fill="none" xmlns="http://www.w3.org/2000/svg">
<path d="M12 17V18H12.8471L12.9864 17.1644L12 17ZM4 17L3.01361 17.1644L3.15287 18H4V17ZM1 5L0.0298575 4.75746C-0.0448278 5.05621 0.0222874 5.3727 0.211795 5.61541C0.401302 5.85813 0.692065 6 1 6L1 5ZM15 5V6C15.3079 6 15.5987 5.85813 15.7882 5.61541C15.9777 5.3727 16.0448 5.05621 15.9701 4.75746L15 5ZM14.1894 1.75746L13.2192 2L14.1894 1.75746ZM2 6H14V4H2V6ZM13.0136 4.8356L11.0136 16.8356L12.9864 17.1644L14.9864 5.1644L13.0136 4.8356ZM12 16H4V18H12V16ZM4.98639 16.8356L2.98639 4.8356L1.01361 5.1644L3.01361 17.1644L4.98639 16.8356ZM2 4H1V6H2V4ZM1.97014 5.24254L2.78078 2L0.840492 1.51493L0.0298575 4.75746L1.97014 5.24254ZM13.2192 2L14.0299 5.24254L15.9701 4.75746L15.1595 1.51493L13.2192 2ZM15 4H14V6H15V4ZM2.78078 2H13.2192V0H2.78078V2ZM15.1595 1.51493C14.9369 0.624595 14.137 0 13.2192 0V2L15.1595 1.51493ZM2.78078 2L2.78078 2V0C1.86304 0 1.06308 0.624594 0.840492 1.51493L2.78078 2Z" fill="#65BCBF"/>
</svg>
